<svg version="1.0" xmlns="http://www.w3.org/2000/svg" width="700pt" height="170pt" viewBox="261 0 528 171"><path d="M261 70v5h11V65h-11v5zm130 22.3c0 20.4-.3 27.8-1.3 29-1.1 1.5-2.9 1.7-15.2 1.5l-14-.3-.3-11.4c-.2-8.5.1-11.7 1-12.3.7-.4 6.6-.8 13.1-.8H386V86h-12.3c-10.7 0-12.8.3-16.7 2.2-7 3.6-9 8.4-9 22.3s1.9 18.7 9 22.3c4.2 2.2 5.5 2.3 19.7 2 16.8-.3 18.3-.9 23.1-7.8 2.2-3.2 2.2-3.9 2.2-32.6V65h-11v27.3zm248.2 1.9c.3 27.2.4 29.5 2.3 32.6 2.8 4.6 7.4 7.2 14 7.9l5.5.6V123h-3.8c-2.1 0-4.3-.5-5-1.2-.9-.9-1.2-8.7-1.2-29V65h-12.1l.3 29.2zM839 92.3c0 20.4-.3 27.8-1.3 29-1.1 1.5-2.9 1.7-15.2 1.5l-14-.3-.3-11.4c-.2-8.5.1-11.7 1-12.3.7-.4 6.6-.8 13.1-.8H834V86h-12.3c-10.7 0-12.8.3-16.7 2.2-7 3.6-9 8.4-9 22.3s2 18.7 9 22.2c3.9 2 5.9 2.3 17.6 2.3 13.8 0 18.4-.9 22.2-4.4 5.1-4.5 5.2-5.5 5.2-36.6V65h-11v27.3zM543 78v8h-16.1l.3 5.7.3 5.8 7.8.3 7.7.3V135h11V98h21V86h-21V70h-11v8zm-360.8 9.6c-2.2 1.5-2.2 1.9-2.2 24.5V135h11V98h9.5c8.3 0 9.6.2 10.5 1.9.6 1.1 1 9 1 18.5V135h11V98h6.3c3.6 0 6.8.5 7.5 1.2.8.8 1.2 6.4 1.2 18.5V135h12v-17.8c0-16.4-.2-18.1-2.2-22.2-3.4-6.7-8.6-9-20.5-9-7.6 0-9.3.3-9.3 1.5 0 .8-.4 1.5-.9 1.5s-2.5-.7-4.4-1.5c-5.2-2.2-27.4-2.1-30.5.1zm78.8 22.9V135h11V86h-11v24.5zm25.3-23c-2.3 1.6-2.3 1.9-2.3 24.6V135h11V98h12.6c12.5 0 12.6 0 15.5 2.9l2.9 2.9V135h12v-14.8c0-16-.9-21-4.7-26-4.9-6.5-8.8-7.6-27.8-8-14.4-.3-17.3-.1-19.2 1.3zm134.2-.1c-10.3 4.6-11.3 18.1-1.8 24.3 2.1 1.4 5.3 1.9 15.3 2.2 6.9.1 13.1.8 13.8 1.3 1.5 1.3 1.6 5 0 6.6-.8.8-6.3 1.2-18 1.2H413v12h17.3c15.9 0 17.6-.2 21.7-2.3 5-2.5 9-8.8 9-14.2s-4-11.7-9-14.3c-3.8-1.9-6-2.2-16.2-2.2-11.1 0-11.8-.1-11.8-2s.7-2 15.5-2H455V86h-15.7c-10.9.1-16.7.5-18.8 1.4zm56.7.7c-6.8 3.4-8.2 7.2-8.2 22.5 0 14.6 1.1 18.1 6.9 21.6 3.2 2 5.2 2.3 16.9 2.6l13.2.4V124h-11.1c-6.1 0-11.9-.5-13-1-1.7-1-1.9-2.2-1.9-12.5s.2-11.5 1.9-12.5c1.1-.5 7.2-1 13.6-1 13 0 15.5.8 15.5 4.8 0 4.7-1.4 5.2-14.2 5.2H485v11h12.5c10.4 0 13.2-.3 16.3-1.9 8.8-4.5 11-17.6 4.2-24.6-4.5-4.7-8.1-5.5-23.5-5.5-11.2 0-13.6.3-17.3 2.1zm114.8-1c-1.4.6-3.6 2-4.8 3.2-4.5 4.2-5.2 6.8-5.2 20.5 0 11.7.2 13.2 2.3 16.2 4.8 7.2 5.8 7.5 26.8 7.8l18.9.4V123h-17.5c-20.6 0-19.5.7-19.5-12.5S591.9 98 612.5 98H630V86l-17.7.1c-9.8 0-18.9.5-20.3 1zm86.6-.1c-1.6.5-4 1.9-5.3 3.2-4.7 4.3-5.3 6.8-5.3 20.6 0 11.7.2 13.2 2.3 16.2 4.7 6.9 6.2 7.5 23 7.8 14.2.3 15.5.2 19.7-2 3.3-1.7 5.1-3.5 6.8-6.8 2.1-4.1 2.3-5.6 2-16.5-.4-14.3-1.8-17.7-8.8-21.3-4-2-5.8-2.2-18-2.1-7.4 0-14.8.5-16.4.9zm30.2 12.2c.8.8 1.2 4.8 1.2 11.3s-.4 10.5-1.2 11.3-5.5 1.2-14.5 1.2c-15.7 0-15.3.4-15.3-12.5S678.6 98 694.3 98c9 0 13.7.4 14.5 1.2zM731 102c0 20.7 1.6 25.1 11.5 30.3 3.5 1.9 5.9 2.2 20.8 2.5 14.1.3 17.2.1 19.2-1.2l2.5-1.6V86h-11v37h-12.9c-12.4 0-12.9-.1-15.3-2.5-3.2-3.1-3.8-6.8-3.8-22.3V86h-11v16z" fill="#6792cd"/></svg>
